<?xml version="1.0" encoding="UTF-8"?>
<svg id="Layer_2" data-name="Layer 2" xmlns="http://www.w3.org/2000/svg" viewBox="0 0 212.74 104.6">
  <defs>
    <style>
      .cls-1 {
        fill: #a01c1c;
        stroke-width: 0px;
      }
    </style>
  </defs>
  <g id="Isolation_Mode" data-name="Isolation Mode">
    <path class="cls-1" d="m112.71,104.6c-2.66-2.53-3.43-5.14-3.65-7.95-.47-5.86-.07-11.65,1.3-17.4,3-12.59,9.15-23.44,18.04-32.74,4.77-4.99,9.65-9.88,14.75-14.53,5.17-4.72,9.49-10.1,12.83-16.13,2.16-3.9,3.34-8.34,4.96-12.54C161.29,2.4,161.67,1.5,162.28,0c.76,1.2,1.32,1.76,1.51,2.43.39,1.4.85,2.86.81,4.29-.3,10.62-1.78,21.02-8.72,29.59-2.72,3.35-6.31,6.03-9.63,8.86-3.63,3.1-7.49,5.93-11.1,9.05-1.83,1.58-3.61,3.35-4.66,6.45,1.19-.43,1.76-.59,2.29-.83,4.33-2,8.61-4.11,12.97-6.02,7.91-3.47,15.75-7.09,22.66-12.37,2.09-1.6,3.92-3.57,5.74-5.51,4.18-4.45,8.32-8.94,12.36-13.52,1.3-1.48,2.18-3.32,3.28-4.97.49-.72,1.07-1.38,1.65-2.12,1.7,1.28,1.14,2.81,1.03,4.18-.38,5.14-2.66,9.71-4.64,14.33-3.33,7.74-8.23,14.57-13.27,21.22-5.48,7.24-13.37,10.59-22.14,12.22-4.29.79-8.55,1.87-12.75,3.07-3.6,1.03-6.02,3.62-8.26,7.19.94-.09,1.47,0,1.82-.21,7.13-4.25,15.02-5.04,23.05-5.03,3.85,0,7.69.36,11.54.53,7.93.36,15.69-.58,22.94-3.93,5.57-2.57,10.6-6.01,14.73-10.68,2.06-2.33,4.02-4.83,7.26-6.87-.09,1.41.07,2.33-.24,3.06-4.8,11.52-10.64,22.43-21.17,29.73-7.7,5.33-16.63,6.93-25.88,5.67-5.38-.73-10.69-2-15.98-3.25-10.05-2.38-19.49-.9-28.48,4.02-4.75,2.6-7.95,6.17-7.66,11.99.02.48-.28.97-.61,2.04Z"/>
    <path class="cls-1" d="m100.03,104.6c2.66-2.53,3.43-5.14,3.65-7.95.47-5.86.07-11.65-1.3-17.4-3-12.59-9.15-23.44-18.04-32.74-4.77-4.99-9.65-9.88-14.75-14.53-5.17-4.72-9.49-10.1-12.83-16.13-2.16-3.9-3.34-8.34-4.96-12.54-.35-.91-.74-1.81-1.35-3.31-.76,1.2-1.32,1.76-1.51,2.43-.39,1.4-.85,2.86-.81,4.29.3,10.62,1.78,21.02,8.72,29.59,2.72,3.35,6.31,6.03,9.63,8.86,3.63,3.1,7.49,5.93,11.1,9.05,1.83,1.58,3.61,3.35,4.66,6.45-1.19-.43-1.76-.59-2.29-.83-4.33-2-8.61-4.11-12.97-6.02-7.91-3.47-15.75-7.09-22.66-12.37-2.09-1.6-3.92-3.57-5.74-5.51-4.18-4.45-8.32-8.94-12.36-13.52-1.3-1.48-2.18-3.32-3.28-4.97-.49-.72-1.07-1.38-1.65-2.12-1.7,1.28-1.14,2.81-1.03,4.18.38,5.14,2.66,9.71,4.64,14.33,3.33,7.74,8.23,14.57,13.27,21.22,5.48,7.24,13.37,10.59,22.14,12.22,4.29.79,8.55,1.87,12.75,3.07,3.6,1.03,6.02,3.62,8.26,7.19-.94-.09-1.47,0-1.82-.21-7.13-4.25-15.02-5.04-23.05-5.03-3.85,0-7.69.36-11.54.53-7.93.36-15.69-.58-22.94-3.93-5.57-2.57-10.6-6.01-14.73-10.68-2.06-2.33-4.02-4.83-7.26-6.87.09,1.41-.07,2.33.24,3.06,4.8,11.52,10.64,22.43,21.17,29.73,7.7,5.33,16.63,6.93,25.88,5.67,5.38-.73,10.69-2,15.98-3.25,10.05-2.38,19.49-.9,28.48,4.02,4.75,2.6,7.95,6.17,7.66,11.99-.02.48.28.97.61,2.04Z"/>
  </g>
</svg>